<svg xmlns="http://www.w3.org/2000/svg" xmlns:xlink="http://www.w3.org/1999/xlink" xml:space="preserve" version="1.1" style="shape-rendering:geometricPrecision;text-rendering:geometricPrecision;image-rendering:optimizeQuality;" viewBox="0 0 284 230" x="0px" y="0px" fill-rule="evenodd" clip-rule="evenodd"><defs><style type="text/css">

    .fil0 {fill:black}

  </style></defs><g><path class="fil0" d="M269 23c3,0 6,0 9,1 3,45 4,95 6,141 -53,-15 -88,-7 -118,14 33,-29 64,-35 109,-24l-6 -132z"/><path class="fil0" d="M143 35c27,-28 69,-38 121,-34 2,45 4,91 6,137 -60,-15 -96,12 -127,46l0 -149z"/><path class="fil0" d="M15 23c-3,0 -6,0 -9,1 -2,45 -4,95 -6,141 53,-15 89,-7 118,14 -33,-29 -64,-35 -109,-24l6 -132z"/><path class="fil0" d="M141 35c-27,-28 -68,-38 -120,-34 -3,45 -5,91 -7,137 60,-15 96,12 127,46l0 -149z"/></g></svg>
