<svg xmlns="http://www.w3.org/2000/svg" xmlns:xlink="http://www.w3.org/1999/xlink" version="1.1" x="0px" y="0px" viewBox="0 0 90 112.5" enable-background="new 0 0 90 90" xml:space="preserve"><g><line x1="45" y1="80.9" x2="45" y2="24.8"/><path d="M45,81.9c-0.6,0-1-0.4-1-1V24.8c0-0.6,0.4-1,1-1s1,0.4,1,1v56.1C46,81.4,45.6,81.9,45,81.9z"/></g><g><line x1="45" y1="18.3" x2="45" y2="9.1"/><path d="M45,19.3c-0.6,0-1-0.4-1-1V9.1c0-0.6,0.4-1,1-1s1,0.4,1,1v9.2C46,18.8,45.6,19.3,45,19.3z"/></g><g><path d="M52.1,24.8H37.9c-1.8,0-3.3-1.5-3.3-3.3c0-1.8,1.5-3.3,3.3-3.3h14.2c1.8,0,3.3,1.5,3.3,3.3c0,0.9-0.4,1.7-1,2.3   C53.8,24.4,53,24.8,52.1,24.8z"/><path d="M52.1,25.8H37.9c-2.3,0-4.3-1.9-4.3-4.3s1.9-4.3,4.3-4.3h14.2c2.3,0,4.3,1.9,4.3,4.3c0,1.1-0.4,2.2-1.2,3   C54.3,25.4,53.2,25.8,52.1,25.8z M37.9,19.3c-1.2,0-2.3,1-2.3,2.3s1,2.3,2.3,2.3h14.2c0.6,0,1.2-0.2,1.6-0.7c0.4-0.4,0.7-1,0.7-1.6   c0-1.2-1-2.3-2.3-2.3H37.9z"/></g><g><line x1="18" y1="80.9" x2="18" y2="46.9"/><path d="M18,81.9c-0.6,0-1-0.4-1-1v-34c0-0.6,0.4-1,1-1s1,0.4,1,1v34C19,81.4,18.6,81.9,18,81.9z"/></g><g><line x1="18" y1="40.4" x2="18" y2="9.1"/><path d="M18,41.4c-0.6,0-1-0.4-1-1V9.1c0-0.6,0.4-1,1-1s1,0.4,1,1v31.3C19,40.9,18.6,41.4,18,41.4z"/></g><g><path d="M25.1,46.9H10.9c-1.8,0-3.3-1.5-3.3-3.3s1.5-3.3,3.3-3.3h14.2c1.8,0,3.3,1.5,3.3,3.3c0,0.9-0.4,1.7-1,2.3   C26.8,46.5,26,46.9,25.1,46.9z"/><path d="M25.1,47.9H10.9c-2.3,0-4.3-1.9-4.3-4.3s1.9-4.3,4.3-4.3h14.2c2.3,0,4.3,1.9,4.3,4.3c0,1.1-0.4,2.2-1.2,3   C27.3,47.4,26.2,47.9,25.1,47.9z M10.9,41.4c-1.2,0-2.3,1-2.3,2.3s1,2.3,2.3,2.3h14.2c0.6,0,1.2-0.2,1.6-0.7c0.4-0.4,0.7-1,0.7-1.6   c0-1.2-1-2.3-2.3-2.3H10.9z"/></g><g><line x1="72" y1="80.9" x2="72" y2="69.8"/><path d="M72,81.9c-0.6,0-1-0.4-1-1V69.8c0-0.6,0.4-1,1-1s1,0.4,1,1v11.1C73,81.4,72.6,81.9,72,81.9z"/></g><g><line x1="72" y1="63.3" x2="72" y2="9.1"/><path d="M72,64.3c-0.6,0-1-0.4-1-1V9.1c0-0.6,0.4-1,1-1s1,0.4,1,1v54.2C73,63.8,72.6,64.3,72,64.3z"/></g><g><path d="M79.1,69.8H64.9c-1.8,0-3.3-1.5-3.3-3.3c0-1.8,1.5-3.3,3.3-3.3h14.2c1.8,0,3.3,1.5,3.3,3.3c0,0.9-0.4,1.7-1,2.3   C80.8,69.4,80,69.8,79.1,69.8z"/><path d="M79.1,70.8H64.9c-2.3,0-4.3-1.9-4.3-4.3s1.9-4.3,4.3-4.3h14.2c2.3,0,4.3,1.9,4.3,4.3c0,1.1-0.4,2.2-1.2,3   C81.3,70.3,80.2,70.8,79.1,70.8z M64.9,64.3c-1.2,0-2.3,1-2.3,2.3s1,2.3,2.3,2.3h14.2c0.6,0,1.2-0.2,1.6-0.7c0.4-0.4,0.7-1,0.7-1.6   c0-1.2-1-2.3-2.3-2.3H64.9z"/></g></svg>
