<svg xmlns="http://www.w3.org/2000/svg" xmlns:xlink="http://www.w3.org/1999/xlink" version="1.1" x="0px" y="0px" viewBox="0 0 72 90" enable-background="new 0 0 72 72" xml:space="preserve"><g><ellipse fill="#000000" cx="35.3" cy="24.1" rx="9.4" ry="8.9"/><ellipse fill="#000000" cx="14.4" cy="23.8" rx="7" ry="6.7"/><ellipse fill="#000000" cx="57.6" cy="23.8" rx="7" ry="6.7"/><path fill="#000000" d="M21.7,38.8c0.8-0.6,0.7-1.8-0.1-2.3c-2.1-1.3-4.6-2-7.2-2C7.1,34.4,1,40.1,0.5,47.3c0,0.6,0.4,1,0.9,1l12,0   c0.6,0,1-0.3,1.3-0.8C16.3,44.1,18.7,41.1,21.7,38.8z"/><path fill="#000000" d="M57.6,34.4c-3,0-5.8,1-8.1,2.6c-0.8,0.5-0.8,1.7-0.1,2.2c2.7,2.2,5,5,6.5,8.3c0.2,0.5,0.7,0.8,1.3,0.8   l13.4,0c0.6,0,1-0.5,0.9-1C71,40.1,64.9,34.4,57.6,34.4z"/><path fill="#000000" d="M35.3,38.2c-9.8,0-17.9,7.6-18.6,17.3c-0.1,0.7,0.5,1.3,1.3,1.3h34.7c0.7,0,1.3-0.6,1.3-1.3   C53.2,45.9,45.1,38.2,35.3,38.2z"/></g></svg>
